# xmcd
# 
# Track frame offsets:
#     150
#     13910
#     26915
#     38850
#     51835
#     66532
#     79660
#     92392
#     104355
#     115792
#     128560
#     140272
#     153720
#     167237
#     180215
#     191375
# 
# Disc length: 2719
# 
# Revision: 2
# Processed by: cddbd v1.5.2PL0 Copyright (c) Steve Scherf et al.
# Submitted via: BonkEnc v1.0beta4
# 
DISCID=d00a9d10
DTITLE=Big Bill Broonzy - Big Bill's Blues
DYEAR=0
DGENRE=
TTITLE0=Big Bill Blues
TTITLE1=You Do Me Any Old Way
TTITLE2=Trucking Little Woman
TTITLE3=Bull Cow Blues
TTITLE4=Southern Flood Blues
TTITLE5=New Shake 'Em On Down
TTITLE6=Night Time Is The Right Time
TTITLE7=Trouble And Lying Woman 
TTITLE8=Baby I Done Got Wise
TTITLE9=Just A Dream
TTITLE10=Oh Yes
TTITLE11=Medicine Man Blues
TTITLE12=Looking Up At Down
TTITLE13=When I Been Drinking
TTITLE14=All By Myself
TTITLE15=Night Watchman Blues
EXTD=
EXTT0=
EXTT1=
EXTT2=
EXTT3=
EXTT4=
EXTT5=
EXTT6=
EXTT7=
EXTT8=
EXTT9=
EXTT10=
EXTT11=
EXTT12=
EXTT13=
EXTT14=
EXTT15=
PLAYORDER=
